<?xml version="1.0" encoding="utf-8"?>
<!-- Generator: Adobe Illustrator 19.2.0, SVG Export Plug-In . SVG Version: 6.00 Build 0)  -->
<svg version="1.1" id="Layer_1" xmlns="http://www.w3.org/2000/svg" xmlns:xlink="http://www.w3.org/1999/xlink" x="0px" y="0px"
	 viewBox="0 0 900 900" style="enable-background:new 0 0 900 900;" xml:space="preserve">
<g id="svg_24">
	<g id="svg_6" transform="matrix(0.6471226168100976,0,0,0.6471226168100976,-5206.637817436639,-3545.9277359419802) ">
		<g id="svg_7">
			<path id="svg_8" d="M9025.9,5677.1c-15.6-44.6-43.1-84.8-79.4-116.3c-36.3-31.5-80.1-53-126.4-62.2c-17.5-3.4-35.4-5.2-53.4-5.2
				c-52.4,0-103.3,14.8-147.3,42.8c-26.5,16.9-49.7,38-68.9,62.5c-19.2-24.4-42.4-45.5-68.9-62.4c-44-28-94.9-42.8-147.2-42.8
				c0,0,0,0,0,0c-43.6,0-87.4,10.8-126.5,31.1c-39.1,20.4-73.1,50-98.2,85.7c-25.7,36.6-41.4,77.5-46.5,121.7
				c-4.5,38.7-1,80.2,10.4,123.4c22.7,85.6,72.8,163.7,110.9,214.1c82.8,109.7,196.6,209.2,348,304.3l18.1,11.4l18.1-11.4
				c186.2-117,316.2-240.5,397.4-377.6c46.7-78.8,71-149.1,74.3-214.7C9042.2,5745.1,9037.4,5709.9,9025.9,5677.1L9025.9,5677.1z
				 M8550.6,6304.9c-135.3-87.1-237.4-177.6-311.8-276.2c-34.4-45.6-79.6-115.6-99.4-190.6c-9.2-34.9-12.1-68-8.6-98.1
				c3.8-32.8,15.5-63.3,34.6-90.5c18.8-26.8,44.4-49.1,73.9-64.4c29.5-15.4,62.4-23.5,95.2-23.5c39.4,0,77.7,11.1,110.7,32.1
				c32.2,20.5,58.1,49.4,74.9,83.6l30.6,62.3l30.5-62.3c16.8-34.2,42.6-63.2,74.9-83.7c33.1-21.1,71.4-32.2,110.8-32.2
				c13.5,0,27.1,1.3,40.2,3.9c34.7,6.9,67.6,23,95,46.8c27.4,23.8,48.1,54,59.8,87.5c8.5,24.4,12.2,50.8,10.8,78.5
				c-2.8,54.4-24,114.4-64.9,183.6C8834.6,6084.9,8717.7,6197.3,8550.6,6304.9L8550.6,6304.9z"/>
		</g>
	</g>
</g>
<g>
	<path d="M837.2,361.3c18,18,35.5,35.5,52.8,52.8c-158.4,158.4-317,317-475.3,475.3c-70.8-70.8-142-142-212.9-212.9
		c17.2-17.2,34.7-34.7,52.1-52.1C307,677.5,360.5,731,414,784.5C555.4,643,696.4,502.1,837.2,361.3z"/>
</g>
</svg>
